<svg width="58" height="74" viewBox="0 0 58 74" fill="none" xmlns="http://www.w3.org/2000/svg" role="presentation">
<path d="M20.3002 11.6C26.7002 22 34.6002 35.1 39.5002 46.2C42.1002 43.1 46.3002 38.6 49.9002 34.9V9H18.7002C19.2002 9.9 19.8002 10.7 20.3002 11.6Z" fill="#0080A4"/>
<path d="M40.9 49.4C42.4 53.3 43.5 56.8 43.9 59.8C44.4 63.3 43.7 66.3 42.1 68.1C41.1 69.2 39.9 69.8 38.5 69.8C37.3 69.8 36 69.2 34.9 68C33.2 66.2 32.4 63.5 32.6 60.7C33 55.8 35.3 51.7 37.4 48.9C32.7 37.7 24.4 24 17.8 13.2C16.9 11.7 16.1 10.3 15.2 9H0V74H50V39.2C46.5 42.9 42.8 47 40.9 49.4Z" fill="#0080A4"/>
<path d="M37.0999 66.0002C37.6999 66.6002 38.1999 66.8002 38.4999 66.8002C38.9999 66.8002 39.4999 66.6002 39.7999 66.1002C40.7999 65.0002 41.1999 62.7002 40.8999 60.2002C40.5999 57.9002 39.7999 55.2002 38.6999 52.2002C37.1999 54.5002 35.7999 57.5002 35.5999 60.9002C35.4999 62.9002 35.9999 64.8002 37.0999 66.0002Z" fill="#0080A4"/>
<path d="M58 34.5C58 35.9 56.9 37 55.5 37C54.1 37 53 35.9 53 34.5C53 33.1 54.1 32 55.5 32C56.9 32 58 33.1 58 34.5Z" fill="#0080A4"/>
<path d="M18 3C18 4.7 16.7 6 15 6C13.3 6 12 4.7 12 3C12 1.3 13.3 0 15 0C16.7 0 18 1.3 18 3Z" fill="#0080A4"/>
</svg>
