<svg width="12" height="21" viewBox="0 0 12 21" fill="none" xmlns="http://www.w3.org/2000/svg">
<path d="M8.66374 11.0167C8.66374 12.4843 7.40766 13.7328 5.79305 13.7328C4.17845 13.7328 2.92236 12.4843 2.92236 11.0167V3.46602C2.92236 1.99847 4.17845 0.75 5.79305 0.75C7.40766 0.75 8.66374 1.99847 8.66374 3.46602V11.0167Z" stroke="black" stroke-width="1.5"/>
<path d="M5.64943 17.0547V16.6079L5.2054 16.5579C2.56775 16.2607 0.5 13.9865 0.5 11.224V8.61706C0.5 8.5267 0.56949 8.46533 0.643678 8.46533C0.717867 8.46533 0.787356 8.5267 0.787356 8.61706V11.224C0.787356 14.0099 3.02653 16.286 5.7931 16.286C8.55968 16.286 10.7989 14.0099 10.7989 11.224V8.61706C10.7989 8.5267 10.8683 8.46533 10.9425 8.46533C11.0167 8.46533 11.0862 8.5267 11.0862 8.61706V11.224C11.0862 13.9865 9.01846 16.2607 6.3808 16.5579L5.93678 16.6079V17.0547V19.6964V20.1964H6.43678H8.36782C8.442 20.1964 8.51149 20.2577 8.51149 20.3481C8.51149 20.4384 8.442 20.4998 8.36782 20.4998H3.21839C3.1442 20.4998 3.07471 20.4384 3.07471 20.3481C3.07471 20.2577 3.1442 20.1964 3.21839 20.1964H5.14943H5.64943V19.6964V17.0547Z" stroke="black"/>
</svg>
